<<<<<<< Updated upstream
<mxfile host="drawio-plugin" modified="2021-11-26T12:29:40.207Z" agent="5.0 (Windows NT 6.2; Win64; x64) AppleWebKit/537.36 (KHTML, like Gecko) Chrome/89.0.4389.114 Safari/537.36" etag="0EuT_oIu7vYZnVut77QV" version="14.7.4" type="embed" pages="3"><diagram id="4GdEAXSaMSUqvFrL9FKr" name="Tổng Quan Game"><mxGraphModel dx="484" dy="470" grid="1" gridSize="10" guides="1" tooltips="1" connect="1" arrows="1" fold="1" page="1" pageScale="1" pageWidth="850" pageHeight="1100" math="0" shadow="0"><root><mxCell id="0"/><mxCell id="1" parent="0"/><mxCell id="sHm3X4Hvae-iuXHcOzd8-46" style="edgeStyle=orthogonalEdgeStyle;rounded=0;orthogonalLoop=1;jettySize=auto;html=1;" parent="1" source="sHm3X4Hvae-iuXHcOzd8-1" target="sHm3X4Hvae-iuXHcOzd8-45" edge="1"><mxGeometry relative="1" as="geometry"/></mxCell><mxCell id="sHm3X4Hvae-iuXHcOzd8-1" value="Server" style="rounded=1;whiteSpace=wrap;html=1;" parent="1" vertex="1"><mxGeometry x="250" y="110" width="120" height="60" as="geometry"/></mxCell><mxCell id="sHm3X4Hvae-iuXHcOzd8-8" style="edgeStyle=orthogonalEdgeStyle;rounded=0;orthogonalLoop=1;jettySize=auto;html=1;" parent="1" source="sHm3X4Hvae-iuXHcOzd8-2" target="sHm3X4Hvae-iuXHcOzd8-6" edge="1"><mxGeometry relative="1" as="geometry"/></mxCell><mxCell id="sHm3X4Hvae-iuXHcOzd8-44" style="edgeStyle=orthogonalEdgeStyle;rounded=0;orthogonalLoop=1;jettySize=auto;html=1;entryX=0;entryY=0.5;entryDx=0;entryDy=0;" parent="1" source="sHm3X4Hvae-iuXHcOzd8-2" target="sHm3X4Hvae-iuXHcOzd8-43" edge="1"><mxGeometry relative="1" as="geometry"/></mxCell><mxCell id="sHm3X4Hvae-iuXHcOzd8-2" value="Client" style="shape=umlActor;verticalLabelPosition=bottom;verticalAlign=top;html=1;outlineConnect=0;" parent="1" vertex="1"><mxGeometry x="100" y="325" width="30" height="60" as="geometry"/></mxCell><mxCell id="sHm3X4Hvae-iuXHcOzd8-21" value="Quản lý" style="edgeStyle=orthogonalEdgeStyle;rounded=0;orthogonalLoop=1;jettySize=auto;html=1;entryX=0;entryY=0.5;entryDx=0;entryDy=0;" parent="1" source="sHm3X4Hvae-iuXHcOzd8-4" target="sHm3X4Hvae-iuXHcOzd8-1" edge="1"><mxGeometry relative="1" as="geometry"><mxPoint x="200" y="210" as="targetPoint"/></mxGeometry></mxCell><mxCell id="sHm3X4Hvae-iuXHcOzd8-4" value="Admin" style="shape=umlActor;verticalLabelPosition=bottom;verticalAlign=top;html=1;outlineConnect=0;" parent="1" vertex="1"><mxGeometry x="100" y="110" width="30" height="60" as="geometry"/></mxCell><mxCell id="sHm3X4Hvae-iuXHcOzd8-17" style="edgeStyle=orthogonalEdgeStyle;rounded=0;orthogonalLoop=1;jettySize=auto;html=1;entryX=0;entryY=0.5;entryDx=0;entryDy=0;" parent="1" source="sHm3X4Hvae-iuXHcOzd8-6" target="sHm3X4Hvae-iuXHcOzd8-23" edge="1"><mxGeometry relative="1" as="geometry"><mxPoint x="330" y="310" as="targetPoint"/></mxGeometry></mxCell><mxCell id="sHm3X4Hvae-iuXHcOzd8-26" style="edgeStyle=orthogonalEdgeStyle;rounded=0;orthogonalLoop=1;jettySize=auto;html=1;" parent="1" source="sHm3X4Hvae-iuXHcOzd8-6" target="sHm3X4Hvae-iuXHcOzd8-25" edge="1"><mxGeometry relative="1" as="geometry"/></mxCell><mxCell id="sHm3X4Hvae-iuXHcOzd8-33" style="edgeStyle=orthogonalEdgeStyle;rounded=0;orthogonalLoop=1;jettySize=auto;html=1;entryX=0;entryY=0.5;entryDx=0;entryDy=0;" parent="1" source="sHm3X4Hvae-iuXHcOzd8-6" target="sHm3X4Hvae-iuXHcOzd8-32" edge="1"><mxGeometry relative="1" as="geometry"/></mxCell><mxCell id="sHm3X4Hvae-iuXHcOzd8-35" style="edgeStyle=orthogonalEdgeStyle;rounded=0;orthogonalLoop=1;jettySize=auto;html=1;entryX=0;entryY=0.5;entryDx=0;entryDy=0;" parent="1" source="sHm3X4Hvae-iuXHcOzd8-6" target="sHm3X4Hvae-iuXHcOzd8-34" edge="1"><mxGeometry relative="1" as="geometry"/></mxCell><mxCell id="sHm3X4Hvae-iuXHcOzd8-6" value="Đăng nhập" style="ellipse;whiteSpace=wrap;html=1;" parent="1" vertex="1"><mxGeometry x="200" y="300" width="80" height="50" as="geometry"/></mxCell><mxCell id="sHm3X4Hvae-iuXHcOzd8-23" value="Thông tin" style="ellipse;whiteSpace=wrap;html=1;" parent="1" vertex="1"><mxGeometry x="330" y="230" width="70" height="50" as="geometry"/></mxCell><mxCell id="sHm3X4Hvae-iuXHcOzd8-28" style="edgeStyle=orthogonalEdgeStyle;rounded=0;orthogonalLoop=1;jettySize=auto;html=1;" parent="1" source="sHm3X4Hvae-iuXHcOzd8-25" target="sHm3X4Hvae-iuXHcOzd8-27" edge="1"><mxGeometry relative="1" as="geometry"/></mxCell><mxCell id="sHm3X4Hvae-iuXHcOzd8-30" style="edgeStyle=orthogonalEdgeStyle;rounded=0;orthogonalLoop=1;jettySize=auto;html=1;entryX=0;entryY=0.5;entryDx=0;entryDy=0;" parent="1" source="sHm3X4Hvae-iuXHcOzd8-25" target="sHm3X4Hvae-iuXHcOzd8-29" edge="1"><mxGeometry relative="1" as="geometry"/></mxCell><mxCell id="sHm3X4Hvae-iuXHcOzd8-25" value="Choi online" style="ellipse;whiteSpace=wrap;html=1;" parent="1" vertex="1"><mxGeometry x="330" y="300" width="70" height="50" as="geometry"/></mxCell><mxCell id="sHm3X4Hvae-iuXHcOzd8-37" style="edgeStyle=orthogonalEdgeStyle;rounded=0;orthogonalLoop=1;jettySize=auto;html=1;entryX=0;entryY=0.5;entryDx=0;entryDy=0;" parent="1" source="sHm3X4Hvae-iuXHcOzd8-27" target="sHm3X4Hvae-iuXHcOzd8-36" edge="1"><mxGeometry relative="1" as="geometry"/></mxCell><mxCell id="sHm3X4Hvae-iuXHcOzd8-27" value="Host" style="ellipse;whiteSpace=wrap;html=1;" parent="1" vertex="1"><mxGeometry x="450" y="260" width="70" height="50" as="geometry"/></mxCell><mxCell id="sHm3X4Hvae-iuXHcOzd8-38" style="edgeStyle=orthogonalEdgeStyle;rounded=0;orthogonalLoop=1;jettySize=auto;html=1;" parent="1" source="sHm3X4Hvae-iuXHcOzd8-29" target="sHm3X4Hvae-iuXHcOzd8-36" edge="1"><mxGeometry relative="1" as="geometry"/></mxCell><mxCell id="sHm3X4Hvae-iuXHcOzd8-29" value="Join" style="ellipse;whiteSpace=wrap;html=1;" parent="1" vertex="1"><mxGeometry x="450" y="330" width="70" height="50" as="geometry"/></mxCell><mxCell id="sHm3X4Hvae-iuXHcOzd8-32" value="Tập luyện" style="ellipse;whiteSpace=wrap;html=1;" parent="1" vertex="1"><mxGeometry x="330" y="370" width="70" height="50" as="geometry"/></mxCell><mxCell id="sHm3X4Hvae-iuXHcOzd8-34" value="Xem sếp hạng" style="ellipse;whiteSpace=wrap;html=1;" parent="1" vertex="1"><mxGeometry x="330" y="440" width="70" height="50" as="geometry"/></mxCell><mxCell id="sHm3X4Hvae-iuXHcOzd8-40" value="Tất cả đều đồng ý" style="edgeStyle=orthogonalEdgeStyle;rounded=0;orthogonalLoop=1;jettySize=auto;html=1;" parent="1" source="sHm3X4Hvae-iuXHcOzd8-36" target="sHm3X4Hvae-iuXHcOzd8-39" edge="1"><mxGeometry relative="1" as="geometry"/></mxCell><mxCell id="sHm3X4Hvae-iuXHcOzd8-36" value="Phòng chờ" style="ellipse;whiteSpace=wrap;html=1;" parent="1" vertex="1"><mxGeometry x="590" y="300" width="70" height="50" as="geometry"/></mxCell><mxCell id="sHm3X4Hvae-iuXHcOzd8-49" style="edgeStyle=orthogonalEdgeStyle;rounded=0;orthogonalLoop=1;jettySize=auto;html=1;" parent="1" source="sHm3X4Hvae-iuXHcOzd8-39" target="sHm3X4Hvae-iuXHcOzd8-48" edge="1"><mxGeometry relative="1" as="geometry"/></mxCell><mxCell id="sHm3X4Hvae-iuXHcOzd8-39" value="GAME" style="ellipse;whiteSpace=wrap;html=1;" parent="1" vertex="1"><mxGeometry x="590" y="180" width="70" height="50" as="geometry"/></mxCell><mxCell id="sHm3X4Hvae-iuXHcOzd8-42" value="&lt;h1&gt;Ghi chú&lt;/h1&gt;&lt;p style=&quot;font-size: 15px&quot;&gt;&lt;font style=&quot;font-size: 15px&quot;&gt;Màu sắc random cho mổi người.&lt;/font&gt;&lt;/p&gt;&lt;p style=&quot;font-size: 15px&quot;&gt;&lt;font style=&quot;font-size: 15px&quot;&gt;Không dùng timestamp.&lt;/font&gt;&lt;/p&gt;&lt;p style=&quot;font-size: 15px&quot;&gt;&lt;font style=&quot;font-size: 15px&quot;&gt;Random số may mắn, số cần chọn.&lt;/font&gt;&lt;/p&gt;&lt;p style=&quot;font-size: 15px&quot;&gt;Tập luyện không cần server.&lt;/p&gt;&lt;p&gt;&lt;span style=&quot;font-size: 15px&quot;&gt;https://drive.google.com/file/d/1RmEp1-HhEhHjxS2R6xgaLhi7kOIGqAgq/view&lt;/span&gt;&lt;br&gt;&lt;/p&gt;" style="text;html=1;spacing=5;spacingTop=-20;whiteSpace=wrap;overflow=hidden;rounded=0;fillColor=#cce5ff;strokeColor=#36393d;" parent="1" vertex="1"><mxGeometry x="425" y="400" width="280" height="235" as="geometry"/></mxCell><mxCell id="sHm3X4Hvae-iuXHcOzd8-43" value="Đăng ký" style="ellipse;whiteSpace=wrap;html=1;" parent="1" vertex="1"><mxGeometry x="200" y="370" width="80" height="50" as="geometry"/></mxCell><mxCell id="sHm3X4Hvae-iuXHcOzd8-47" style="edgeStyle=orthogonalEdgeStyle;rounded=0;orthogonalLoop=1;jettySize=auto;html=1;" parent="1" source="sHm3X4Hvae-iuXHcOzd8-45" target="sHm3X4Hvae-iuXHcOzd8-39" edge="1"><mxGeometry relative="1" as="geometry"/></mxCell><mxCell id="sHm3X4Hvae-iuXHcOzd8-45" value="Random map" style="ellipse;whiteSpace=wrap;html=1;" parent="1" vertex="1"><mxGeometry x="440" y="115" width="70" height="50" as="geometry"/></mxCell><mxCell id="sHm3X4Hvae-iuXHcOzd8-50" style="edgeStyle=orthogonalEdgeStyle;rounded=0;orthogonalLoop=1;jettySize=auto;html=1;entryX=0.5;entryY=1;entryDx=0;entryDy=0;" parent="1" source="sHm3X4Hvae-iuXHcOzd8-48" target="sHm3X4Hvae-iuXHcOzd8-1" edge="1"><mxGeometry relative="1" as="geometry"/></mxCell><mxCell id="sHm3X4Hvae-iuXHcOzd8-48" value="Dữ liệu trò chơi" style="ellipse;whiteSpace=wrap;html=1;" parent="1" vertex="1"><mxGeometry x="440" y="180" width="70" height="50" as="geometry"/></mxCell></root></mxGraphModel></diagram><diagram id="xvQNjVeXi9eKW-QLr-48" name="Cấu trúc"><mxGraphModel dx="569" dy="553" grid="1" gridSize="10" guides="1" tooltips="1" connect="1" arrows="1" fold="1" page="1" pageScale="1" pageWidth="850" pageHeight="1100" math="0" shadow="0"><root><mxCell id="ufouj3XH8QUrKFDH21TH-0"/><mxCell id="ufouj3XH8QUrKFDH21TH-1" parent="ufouj3XH8QUrKFDH21TH-0"/><mxCell id="HlS7VuZoclfH8kjKyimw-1" value="" style="whiteSpace=wrap;html=1;" parent="ufouj3XH8QUrKFDH21TH-1" vertex="1"><mxGeometry x="120" y="220" width="600" height="270" as="geometry"/></mxCell><mxCell id="ufouj3XH8QUrKFDH21TH-6" value="Server" style="html=1;" parent="ufouj3XH8QUrKFDH21TH-1" vertex="1"><mxGeometry x="160" y="380" width="110" height="50" as="geometry"/></mxCell><mxCell id="ufouj3XH8QUrKFDH21TH-7" value="Client" style="html=1;" parent="ufouj3XH8QUrKFDH21TH-1" vertex="1"><mxGeometry x="560" y="380" width="110" height="50" as="geometry"/></mxCell><mxCell id="ufouj3XH8QUrKFDH21TH-8" value="Dùng radminVPN" style="html=1;" parent="ufouj3XH8QUrKFDH21TH-1" vertex="1"><mxGeometry x="370" y="270" width="110" height="50" as="geometry"/></mxCell><mxCell id="7s9uENeYn7SRwSn7_aCW-1" value="Kết nối Database&lt;br&gt;JDBC" style="html=1;" parent="ufouj3XH8QUrKFDH21TH-1" vertex="1"><mxGeometry x="160" y="270" width="110" height="50" as="geometry"/></mxCell><mxCell id="7s9uENeYn7SRwSn7_aCW-5" value="" style="endArrow=open;endFill=1;endSize=12;html=1;entryX=0.25;entryY=1;entryDx=0;entryDy=0;exitX=0.25;exitY=0;exitDx=0;exitDy=0;" parent="ufouj3XH8QUrKFDH21TH-1" source="ufouj3XH8QUrKFDH21TH-6" target="7s9uENeYn7SRwSn7_aCW-1" edge="1"><mxGeometry width="160" relative="1" as="geometry"><mxPoint x="340" y="420" as="sourcePoint"/><mxPoint x="500" y="420" as="targetPoint"/></mxGeometry></mxCell><mxCell id="7s9uENeYn7SRwSn7_aCW-6" value="" style="endArrow=open;endFill=1;endSize=12;html=1;entryX=0.75;entryY=0;entryDx=0;entryDy=0;exitX=0.75;exitY=1;exitDx=0;exitDy=0;" parent="ufouj3XH8QUrKFDH21TH-1" source="7s9uENeYn7SRwSn7_aCW-1" target="ufouj3XH8QUrKFDH21TH-6" edge="1"><mxGeometry width="160" relative="1" as="geometry"><mxPoint x="197.5" y="390" as="sourcePoint"/><mxPoint x="197.5" y="330" as="targetPoint"/></mxGeometry></mxCell><mxCell id="7s9uENeYn7SRwSn7_aCW-7" value="" style="endArrow=open;endFill=1;endSize=12;html=1;exitX=1;exitY=0.5;exitDx=0;exitDy=0;entryX=0;entryY=0.5;entryDx=0;entryDy=0;" parent="ufouj3XH8QUrKFDH21TH-1" source="ufouj3XH8QUrKFDH21TH-6" target="ufouj3XH8QUrKFDH21TH-8" edge="1"><mxGeometry width="160" relative="1" as="geometry"><mxPoint x="340" y="420" as="sourcePoint"/><mxPoint x="500" y="420" as="targetPoint"/></mxGeometry></mxCell><mxCell id="7s9uENeYn7SRwSn7_aCW-9" value="" style="endArrow=open;endFill=1;endSize=12;html=1;exitX=0;exitY=0.5;exitDx=0;exitDy=0;entryX=1;entryY=0.5;entryDx=0;entryDy=0;" parent="ufouj3XH8QUrKFDH21TH-1" source="ufouj3XH8QUrKFDH21TH-7" target="ufouj3XH8QUrKFDH21TH-8" edge="1"><mxGeometry width="160" relative="1" as="geometry"><mxPoint x="340" y="420" as="sourcePoint"/><mxPoint x="500" y="420" as="targetPoint"/></mxGeometry></mxCell><mxCell id="7s9uENeYn7SRwSn7_aCW-11" value="Port Server: 5000" style="html=1;" parent="ufouj3XH8QUrKFDH21TH-1" vertex="1"><mxGeometry x="370" y="380" width="110" height="50" as="geometry"/></mxCell><mxCell id="7s9uENeYn7SRwSn7_aCW-12" value="" style="endArrow=open;endFill=1;endSize=12;html=1;exitX=0;exitY=0.5;exitDx=0;exitDy=0;entryX=1;entryY=0.5;entryDx=0;entryDy=0;" parent="ufouj3XH8QUrKFDH21TH-1" source="ufouj3XH8QUrKFDH21TH-7" target="7s9uENeYn7SRwSn7_aCW-11" edge="1"><mxGeometry width="160" relative="1" as="geometry"><mxPoint x="340" y="430" as="sourcePoint"/><mxPoint x="500" y="430" as="targetPoint"/></mxGeometry></mxCell><mxCell id="7s9uENeYn7SRwSn7_aCW-13" value="" style="endArrow=open;endFill=1;endSize=12;html=1;exitX=0;exitY=0.5;exitDx=0;exitDy=0;entryX=1;entryY=0.5;entryDx=0;entryDy=0;" parent="ufouj3XH8QUrKFDH21TH-1" source="7s9uENeYn7SRwSn7_aCW-11" target="ufouj3XH8QUrKFDH21TH-6" edge="1"><mxGeometry width="160" relative="1" as="geometry"><mxPoint x="340" y="430" as="sourcePoint"/><mxPoint x="500" y="430" as="targetPoint"/></mxGeometry></mxCell><mxCell id="7s9uENeYn7SRwSn7_aCW-14" value="" style="endArrow=open;endFill=1;endSize=12;html=1;exitX=1;exitY=0.75;exitDx=0;exitDy=0;entryX=0;entryY=0.75;entryDx=0;entryDy=0;" parent="ufouj3XH8QUrKFDH21TH-1" source="ufouj3XH8QUrKFDH21TH-6" target="7s9uENeYn7SRwSn7_aCW-11" edge="1"><mxGeometry width="160" relative="1" as="geometry"><mxPoint x="330" y="530" as="sourcePoint"/><mxPoint x="500" y="430" as="targetPoint"/></mxGeometry></mxCell><mxCell id="7s9uENeYn7SRwSn7_aCW-15" value="" style="endArrow=open;endFill=1;endSize=12;html=1;exitX=1;exitY=0.75;exitDx=0;exitDy=0;entryX=0;entryY=0.75;entryDx=0;entryDy=0;" parent="ufouj3XH8QUrKFDH21TH-1" source="7s9uENeYn7SRwSn7_aCW-11" target="ufouj3XH8QUrKFDH21TH-7" edge="1"><mxGeometry width="160" relative="1" as="geometry"><mxPoint x="340" y="430" as="sourcePoint"/><mxPoint x="500" y="430" as="targetPoint"/></mxGeometry></mxCell></root></mxGraphModel></diagram><diagram id="QNJ7MTI33ArgHwdu0H43" name="Class"><mxGraphModel dx="691" dy="671" grid="1" gridSize="10" guides="1" tooltips="1" connect="1" arrows="1" fold="1" page="1" pageScale="1" pageWidth="850" pageHeight="1100" math="0" shadow="0"><root><mxCell id="sJr_ZFusfqTdJ27oF-4D-0"/><mxCell id="sJr_ZFusfqTdJ27oF-4D-1" parent="sJr_ZFusfqTdJ27oF-4D-0"/><mxCell id="_KoMBeKu2d4M7XPo38Ia-5" value="" style="whiteSpace=wrap;html=1;" parent="sJr_ZFusfqTdJ27oF-4D-1" vertex="1"><mxGeometry x="30" y="110" width="780" height="640" as="geometry"/></mxCell><mxCell id="oUOJDXIDrn3mgUW1ADeC-8" value="Account" style="swimlane;fontStyle=1;align=center;verticalAlign=top;childLayout=stackLayout;horizontal=1;startSize=26;horizontalStack=0;resizeParent=1;resizeParentMax=0;resizeLast=0;collapsible=1;marginBottom=0;" parent="sJr_ZFusfqTdJ27oF-4D-1" vertex="1"><mxGeometry x="60" y="150" width="160" height="268" as="geometry"/></mxCell><mxCell id="WrLgofK7c-P82EvVTg10-13" value="String uid" style="text;strokeColor=none;fillColor=none;align=left;verticalAlign=top;spacingLeft=4;spacingRight=4;overflow=hidden;rotatable=0;points=[[0,0.5],[1,0.5]];portConstraint=eastwest;" parent="oUOJDXIDrn3mgUW1ADeC-8" vertex="1"><mxGeometry y="26" width="160" height="26" as="geometry"/></mxCell><mxCell id="oUOJDXIDrn3mgUW1ADeC-9" value="String userName (Email)" style="text;strokeColor=none;fillColor=none;align=left;verticalAlign=top;spacingLeft=4;spacingRight=4;overflow=hidden;rotatable=0;points=[[0,0.5],[1,0.5]];portConstraint=eastwest;" parent="oUOJDXIDrn3mgUW1ADeC-8" vertex="1"><mxGeometry y="52" width="160" height="26" as="geometry"/></mxCell><mxCell id="oUOJDXIDrn3mgUW1ADeC-12" value="String password (Hash)" style="text;strokeColor=none;fillColor=none;align=left;verticalAlign=top;spacingLeft=4;spacingRight=4;overflow=hidden;rotatable=0;points=[[0,0.5],[1,0.5]];portConstraint=eastwest;" parent="oUOJDXIDrn3mgUW1ADeC-8" vertex="1"><mxGeometry y="78" width="160" height="26" as="geometry"/></mxCell><mxCell id="oUOJDXIDrn3mgUW1ADeC-11" value="String hoTen" style="text;strokeColor=none;fillColor=none;align=left;verticalAlign=top;spacingLeft=4;spacingRight=4;overflow=hidden;rotatable=0;points=[[0,0.5],[1,0.5]];portConstraint=eastwest;" parent="oUOJDXIDrn3mgUW1ADeC-8" vertex="1"><mxGeometry y="104" width="160" height="26" as="geometry"/></mxCell><mxCell id="oUOJDXIDrn3mgUW1ADeC-16" value="String gioiTinh" style="text;strokeColor=none;fillColor=none;align=left;verticalAlign=top;spacingLeft=4;spacingRight=4;overflow=hidden;rotatable=0;points=[[0,0.5],[1,0.5]];portConstraint=eastwest;" parent="oUOJDXIDrn3mgUW1ADeC-8" vertex="1"><mxGeometry y="130" width="160" height="26" as="geometry"/></mxCell><mxCell id="oUOJDXIDrn3mgUW1ADeC-17" value="String ngaySinh" style="text;strokeColor=none;fillColor=none;align=left;verticalAlign=top;spacingLeft=4;spacingRight=4;overflow=hidden;rotatable=0;points=[[0,0.5],[1,0.5]];portConstraint=eastwest;" parent="oUOJDXIDrn3mgUW1ADeC-8" vertex="1"><mxGeometry y="156" width="160" height="26" as="geometry"/></mxCell><mxCell id="oUOJDXIDrn3mgUW1ADeC-10" value="" style="line;strokeWidth=1;fillColor=none;align=left;verticalAlign=middle;spacingTop=-1;spacingLeft=3;spacingRight=3;rotatable=0;labelPosition=right;points=[];portConstraint=eastwest;" parent="oUOJDXIDrn3mgUW1ADeC-8" vertex="1"><mxGeometry y="182" width="160" height="8" as="geometry"/></mxCell><mxCell id="oUOJDXIDrn3mgUW1ADeC-15" value="Đăng ký tài khoản" style="text;strokeColor=none;fillColor=none;align=left;verticalAlign=top;spacingLeft=4;spacingRight=4;overflow=hidden;rotatable=0;points=[[0,0.5],[1,0.5]];portConstraint=eastwest;" parent="oUOJDXIDrn3mgUW1ADeC-8" vertex="1"><mxGeometry y="190" width="160" height="26" as="geometry"/></mxCell><mxCell id="oUOJDXIDrn3mgUW1ADeC-18" value="Đăng nhập" style="text;strokeColor=none;fillColor=none;align=left;verticalAlign=top;spacingLeft=4;spacingRight=4;overflow=hidden;rotatable=0;points=[[0,0.5],[1,0.5]];portConstraint=eastwest;" parent="oUOJDXIDrn3mgUW1ADeC-8" vertex="1"><mxGeometry y="216" width="160" height="26" as="geometry"/></mxCell><mxCell id="oUOJDXIDrn3mgUW1ADeC-19" value="Sửa thông tin" style="text;strokeColor=none;fillColor=none;align=left;verticalAlign=top;spacingLeft=4;spacingRight=4;overflow=hidden;rotatable=0;points=[[0,0.5],[1,0.5]];portConstraint=eastwest;" parent="oUOJDXIDrn3mgUW1ADeC-8" vertex="1"><mxGeometry y="242" width="160" height="26" as="geometry"/></mxCell><mxCell id="oUOJDXIDrn3mgUW1ADeC-20" value="NumberPoint" style="swimlane;fontStyle=1;align=center;verticalAlign=top;childLayout=stackLayout;horizontal=1;startSize=26;horizontalStack=0;resizeParent=1;resizeParentMax=0;resizeLast=0;collapsible=1;marginBottom=0;" parent="sJr_ZFusfqTdJ27oF-4D-1" vertex="1"><mxGeometry x="610" y="180" width="160" height="164" as="geometry"><mxRectangle x="290" y="10" width="110" height="26" as="alternateBounds"/></mxGeometry></mxCell><mxCell id="oUOJDXIDrn3mgUW1ADeC-21" value="int Value" style="text;strokeColor=none;fillColor=none;align=left;verticalAlign=top;spacingLeft=4;spacingRight=4;overflow=hidden;rotatable=0;points=[[0,0.5],[1,0.5]];portConstraint=eastwest;" parent="oUOJDXIDrn3mgUW1ADeC-20" vertex="1"><mxGeometry y="26" width="160" height="26" as="geometry"/></mxCell><mxCell id="oUOJDXIDrn3mgUW1ADeC-24" value="int posX" style="text;strokeColor=none;fillColor=none;align=left;verticalAlign=top;spacingLeft=4;spacingRight=4;overflow=hidden;rotatable=0;points=[[0,0.5],[1,0.5]];portConstraint=eastwest;" parent="oUOJDXIDrn3mgUW1ADeC-20" vertex="1"><mxGeometry y="52" width="160" height="26" as="geometry"/></mxCell><mxCell id="oUOJDXIDrn3mgUW1ADeC-25" value="int posY" style="text;strokeColor=none;fillColor=none;align=left;verticalAlign=top;spacingLeft=4;spacingRight=4;overflow=hidden;rotatable=0;points=[[0,0.5],[1,0.5]];portConstraint=eastwest;" parent="oUOJDXIDrn3mgUW1ADeC-20" vertex="1"><mxGeometry y="78" width="160" height="26" as="geometry"/></mxCell><mxCell id="oUOJDXIDrn3mgUW1ADeC-26" value="Color chosenColor" style="text;strokeColor=none;fillColor=none;align=left;verticalAlign=top;spacingLeft=4;spacingRight=4;overflow=hidden;rotatable=0;points=[[0,0.5],[1,0.5]];portConstraint=eastwest;" parent="oUOJDXIDrn3mgUW1ADeC-20" vertex="1"><mxGeometry y="104" width="160" height="26" as="geometry"/></mxCell><mxCell id="_KoMBeKu2d4M7XPo38Ia-2" value="String loaiSo" style="text;strokeColor=none;fillColor=none;align=left;verticalAlign=top;spacingLeft=4;spacingRight=4;overflow=hidden;rotatable=0;points=[[0,0.5],[1,0.5]];portConstraint=eastwest;" parent="oUOJDXIDrn3mgUW1ADeC-20" vertex="1"><mxGeometry y="130" width="160" height="26" as="geometry"/></mxCell><mxCell id="oUOJDXIDrn3mgUW1ADeC-22" value="" style="line;strokeWidth=1;fillColor=none;align=left;verticalAlign=middle;spacingTop=-1;spacingLeft=3;spacingRight=3;rotatable=0;labelPosition=right;points=[];portConstraint=eastwest;" parent="oUOJDXIDrn3mgUW1ADeC-20" vertex="1"><mxGeometry y="156" width="160" height="8" as="geometry"/></mxCell><mxCell id="WrLgofK7c-P82EvVTg10-19" style="edgeStyle=orthogonalEdgeStyle;rounded=0;orthogonalLoop=1;jettySize=auto;html=1;" parent="sJr_ZFusfqTdJ27oF-4D-1" source="oUOJDXIDrn3mgUW1ADeC-27" target="oUOJDXIDrn3mgUW1ADeC-20" edge="1"><mxGeometry relative="1" as="geometry"/></mxCell><mxCell id="oUOJDXIDrn3mgUW1ADeC-27" value="Map" style="swimlane;fontStyle=1;align=center;verticalAlign=top;childLayout=stackLayout;horizontal=1;startSize=26;horizontalStack=0;resizeParent=1;resizeParentMax=0;resizeLast=0;collapsible=1;marginBottom=0;" parent="sJr_ZFusfqTdJ27oF-4D-1" vertex="1"><mxGeometry x="610" y="421" width="160" height="242" as="geometry"><mxRectangle x="490" y="150" width="110" height="26" as="alternateBounds"/></mxGeometry></mxCell><mxCell id="oUOJDXIDrn3mgUW1ADeC-28" value="List&lt;NumberPoint&gt; list" style="text;strokeColor=none;fillColor=none;align=left;verticalAlign=top;spacingLeft=4;spacingRight=4;overflow=hidden;rotatable=0;points=[[0,0.5],[1,0.5]];portConstraint=eastwest;" parent="oUOJDXIDrn3mgUW1ADeC-27" vertex="1"><mxGeometry y="26" width="160" height="26" as="geometry"/></mxCell><mxCell id="oUOJDXIDrn3mgUW1ADeC-29" value="int valueStart" style="text;strokeColor=none;fillColor=none;align=left;verticalAlign=top;spacingLeft=4;spacingRight=4;overflow=hidden;rotatable=0;points=[[0,0.5],[1,0.5]];portConstraint=eastwest;" parent="oUOJDXIDrn3mgUW1ADeC-27" vertex="1"><mxGeometry y="52" width="160" height="26" as="geometry"/></mxCell><mxCell id="oUOJDXIDrn3mgUW1ADeC-31" value="int  valueEnd" style="text;strokeColor=none;fillColor=none;align=left;verticalAlign=top;spacingLeft=4;spacingRight=4;overflow=hidden;rotatable=0;points=[[0,0.5],[1,0.5]];portConstraint=eastwest;" parent="oUOJDXIDrn3mgUW1ADeC-27" vertex="1"><mxGeometry y="78" width="160" height="26" as="geometry"/></mxCell><mxCell id="_KoMBeKu2d4M7XPo38Ia-3" value="int  soMayMan" style="text;strokeColor=none;fillColor=none;align=left;verticalAlign=top;spacingLeft=4;spacingRight=4;overflow=hidden;rotatable=0;points=[[0,0.5],[1,0.5]];portConstraint=eastwest;" parent="oUOJDXIDrn3mgUW1ADeC-27" vertex="1"><mxGeometry y="104" width="160" height="26" as="geometry"/></mxCell><mxCell id="_KoMBeKu2d4M7XPo38Ia-4" value="int  soUuTien" style="text;strokeColor=none;fillColor=none;align=left;verticalAlign=top;spacingLeft=4;spacingRight=4;overflow=hidden;rotatable=0;points=[[0,0.5],[1,0.5]];portConstraint=eastwest;" parent="oUOJDXIDrn3mgUW1ADeC-27" vertex="1"><mxGeometry y="130" width="160" height="26" as="geometry"/></mxCell><mxCell id="oUOJDXIDrn3mgUW1ADeC-32" value="" style="line;strokeWidth=1;fillColor=none;align=left;verticalAlign=middle;spacingTop=-1;spacingLeft=3;spacingRight=3;rotatable=0;labelPosition=right;points=[];portConstraint=eastwest;" parent="oUOJDXIDrn3mgUW1ADeC-27" vertex="1"><mxGeometry y="156" width="160" height="8" as="geometry"/></mxCell><mxCell id="oUOJDXIDrn3mgUW1ADeC-33" value="createNew" style="text;strokeColor=none;fillColor=none;align=left;verticalAlign=top;spacingLeft=4;spacingRight=4;overflow=hidden;rotatable=0;points=[[0,0.5],[1,0.5]];portConstraint=eastwest;" parent="oUOJDXIDrn3mgUW1ADeC-27" vertex="1"><mxGeometry y="164" width="160" height="26" as="geometry"/></mxCell><mxCell id="oUOJDXIDrn3mgUW1ADeC-44" value="isNearly" style="text;strokeColor=none;fillColor=none;align=left;verticalAlign=top;spacingLeft=4;spacingRight=4;overflow=hidden;rotatable=0;points=[[0,0.5],[1,0.5]];portConstraint=eastwest;" parent="oUOJDXIDrn3mgUW1ADeC-27" vertex="1"><mxGeometry y="190" width="160" height="26" as="geometry"/></mxCell><mxCell id="oUOJDXIDrn3mgUW1ADeC-34" value="isNearly" style="text;strokeColor=none;fillColor=none;align=left;verticalAlign=top;spacingLeft=4;spacingRight=4;overflow=hidden;rotatable=0;points=[[0,0.5],[1,0.5]];portConstraint=eastwest;" parent="oUOJDXIDrn3mgUW1ADeC-27" vertex="1"><mxGeometry y="216" width="160" height="26" as="geometry"/></mxCell><mxCell id="WrLgofK7c-P82EvVTg10-18" style="edgeStyle=orthogonalEdgeStyle;rounded=0;orthogonalLoop=1;jettySize=auto;html=1;" parent="sJr_ZFusfqTdJ27oF-4D-1" source="dL_OR4h-DGKXpUA8Gyb1-4" target="oUOJDXIDrn3mgUW1ADeC-27" edge="1"><mxGeometry relative="1" as="geometry"/></mxCell><mxCell id="dL_OR4h-DGKXpUA8Gyb1-4" value="Match" style="swimlane;fontStyle=1;align=center;verticalAlign=top;childLayout=stackLayout;horizontal=1;startSize=26;horizontalStack=0;resizeParent=1;resizeParentMax=0;resizeLast=0;collapsible=1;marginBottom=0;" parent="sJr_ZFusfqTdJ27oF-4D-1" vertex="1"><mxGeometry x="345" y="434" width="160" height="268" as="geometry"/></mxCell><mxCell id="dL_OR4h-DGKXpUA8Gyb1-9" value="String idRoom" style="text;strokeColor=none;fillColor=none;align=left;verticalAlign=top;spacingLeft=4;spacingRight=4;overflow=hidden;rotatable=0;points=[[0,0.5],[1,0.5]];portConstraint=eastwest;" parent="dL_OR4h-DGKXpUA8Gyb1-4" vertex="1"><mxGeometry y="26" width="160" height="26" as="geometry"/></mxCell><mxCell id="dL_OR4h-DGKXpUA8Gyb1-5" value="String roomName" style="text;strokeColor=none;fillColor=none;align=left;verticalAlign=top;spacingLeft=4;spacingRight=4;overflow=hidden;rotatable=0;points=[[0,0.5],[1,0.5]];portConstraint=eastwest;" parent="dL_OR4h-DGKXpUA8Gyb1-4" vertex="1"><mxGeometry y="52" width="160" height="26" as="geometry"/></mxCell><mxCell id="dL_OR4h-DGKXpUA8Gyb1-8" value="int matchTime" style="text;strokeColor=none;fillColor=none;align=left;verticalAlign=top;spacingLeft=4;spacingRight=4;overflow=hidden;rotatable=0;points=[[0,0.5],[1,0.5]];portConstraint=eastwest;" parent="dL_OR4h-DGKXpUA8Gyb1-4" vertex="1"><mxGeometry y="78" width="160" height="26" as="geometry"/></mxCell><mxCell id="WrLgofK7c-P82EvVTg10-5" value="Map map" style="text;strokeColor=none;fillColor=none;align=left;verticalAlign=top;spacingLeft=4;spacingRight=4;overflow=hidden;rotatable=0;points=[[0,0.5],[1,0.5]];portConstraint=eastwest;" parent="dL_OR4h-DGKXpUA8Gyb1-4" vertex="1"><mxGeometry y="104" width="160" height="26" as="geometry"/></mxCell><mxCell id="dL_OR4h-DGKXpUA8Gyb1-6" value="" style="line;strokeWidth=1;fillColor=none;align=left;verticalAlign=middle;spacingTop=-1;spacingLeft=3;spacingRight=3;rotatable=0;labelPosition=right;points=[];portConstraint=eastwest;" parent="dL_OR4h-DGKXpUA8Gyb1-4" vertex="1"><mxGeometry y="130" width="160" height="8" as="geometry"/></mxCell><mxCell id="dL_OR4h-DGKXpUA8Gyb1-7" value="Xử lý kết quả" style="text;strokeColor=none;fillColor=none;align=left;verticalAlign=top;spacingLeft=4;spacingRight=4;overflow=hidden;rotatable=0;points=[[0,0.5],[1,0.5]];portConstraint=eastwest;" parent="dL_OR4h-DGKXpUA8Gyb1-4" vertex="1"><mxGeometry y="138" width="160" height="26" as="geometry"/></mxCell><mxCell id="6b9qopNAVwUQcf8cEVCN-0" value="Gán màu cho user" style="text;strokeColor=none;fillColor=none;align=left;verticalAlign=top;spacingLeft=4;spacingRight=4;overflow=hidden;rotatable=0;points=[[0,0.5],[1,0.5]];portConstraint=eastwest;" parent="dL_OR4h-DGKXpUA8Gyb1-4" vertex="1"><mxGeometry y="164" width="160" height="26" as="geometry"/></mxCell><mxCell id="6b9qopNAVwUQcf8cEVCN-6" value="Random number next" style="text;strokeColor=none;fillColor=none;align=left;verticalAlign=top;spacingLeft=4;spacingRight=4;overflow=hidden;rotatable=0;points=[[0,0.5],[1,0.5]];portConstraint=eastwest;" parent="dL_OR4h-DGKXpUA8Gyb1-4" vertex="1"><mxGeometry y="190" width="160" height="26" as="geometry"/></mxCell><mxCell id="_KoMBeKu2d4M7XPo38Ia-0" value="Random number bonus" style="text;strokeColor=none;fillColor=none;align=left;verticalAlign=top;spacingLeft=4;spacingRight=4;overflow=hidden;rotatable=0;points=[[0,0.5],[1,0.5]];portConstraint=eastwest;" parent="dL_OR4h-DGKXpUA8Gyb1-4" vertex="1"><mxGeometry y="216" width="160" height="26" as="geometry"/></mxCell><mxCell id="_KoMBeKu2d4M7XPo38Ia-1" value="Random number bonus" style="text;strokeColor=none;fillColor=none;align=left;verticalAlign=top;spacingLeft=4;spacingRight=4;overflow=hidden;rotatable=0;points=[[0,0.5],[1,0.5]];portConstraint=eastwest;" parent="dL_OR4h-DGKXpUA8Gyb1-4" vertex="1"><mxGeometry y="242" width="160" height="26" as="geometry"/></mxCell><mxCell id="WrLgofK7c-P82EvVTg10-16" style="edgeStyle=orthogonalEdgeStyle;rounded=0;orthogonalLoop=1;jettySize=auto;html=1;" parent="sJr_ZFusfqTdJ27oF-4D-1" source="WrLgofK7c-P82EvVTg10-9" target="oUOJDXIDrn3mgUW1ADeC-8" edge="1"><mxGeometry relative="1" as="geometry"/></mxCell><mxCell id="WrLgofK7c-P82EvVTg10-17" style="edgeStyle=orthogonalEdgeStyle;rounded=0;orthogonalLoop=1;jettySize=auto;html=1;" parent="sJr_ZFusfqTdJ27oF-4D-1" source="WrLgofK7c-P82EvVTg10-9" target="dL_OR4h-DGKXpUA8Gyb1-4" edge="1"><mxGeometry relative="1" as="geometry"/></mxCell><mxCell id="WrLgofK7c-P82EvVTg10-9" value="Detail Match" style="swimlane;fontStyle=1;align=center;verticalAlign=top;childLayout=stackLayout;horizontal=1;startSize=26;horizontalStack=0;resizeParent=1;resizeParentMax=0;resizeLast=0;collapsible=1;marginBottom=0;" parent="sJr_ZFusfqTdJ27oF-4D-1" vertex="1"><mxGeometry x="60" y="460" width="160" height="164" as="geometry"/></mxCell><mxCell id="WrLgofK7c-P82EvVTg10-10" value="String uid" style="text;strokeColor=none;fillColor=none;align=left;verticalAlign=top;spacingLeft=4;spacingRight=4;overflow=hidden;rotatable=0;points=[[0,0.5],[1,0.5]];portConstraint=eastwest;" parent="WrLgofK7c-P82EvVTg10-9" vertex="1"><mxGeometry y="26" width="160" height="26" as="geometry"/></mxCell><mxCell id="WrLgofK7c-P82EvVTg10-14" value="String idRoom" style="text;strokeColor=none;fillColor=none;align=left;verticalAlign=top;spacingLeft=4;spacingRight=4;overflow=hidden;rotatable=0;points=[[0,0.5],[1,0.5]];portConstraint=eastwest;" parent="WrLgofK7c-P82EvVTg10-9" vertex="1"><mxGeometry y="52" width="160" height="26" as="geometry"/></mxCell><mxCell id="6b9qopNAVwUQcf8cEVCN-1" value="Color playerColor" style="text;strokeColor=none;fillColor=none;align=left;verticalAlign=top;spacingLeft=4;spacingRight=4;overflow=hidden;rotatable=0;points=[[0,0.5],[1,0.5]];portConstraint=eastwest;" parent="WrLgofK7c-P82EvVTg10-9" vertex="1"><mxGeometry y="78" width="160" height="26" as="geometry"/></mxCell><mxCell id="WrLgofK7c-P82EvVTg10-15" value="int point (3 - 2- 1)" style="text;strokeColor=none;fillColor=none;align=left;verticalAlign=top;spacingLeft=4;spacingRight=4;overflow=hidden;rotatable=0;points=[[0,0.5],[1,0.5]];portConstraint=eastwest;" parent="WrLgofK7c-P82EvVTg10-9" vertex="1"><mxGeometry y="104" width="160" height="26" as="geometry"/></mxCell><mxCell id="WrLgofK7c-P82EvVTg10-11" value="" style="line;strokeWidth=1;fillColor=none;align=left;verticalAlign=middle;spacingTop=-1;spacingLeft=3;spacingRight=3;rotatable=0;labelPosition=right;points=[];portConstraint=eastwest;" parent="WrLgofK7c-P82EvVTg10-9" vertex="1"><mxGeometry y="130" width="160" height="8" as="geometry"/></mxCell><mxCell id="6b9qopNAVwUQcf8cEVCN-2" value="method" style="text;strokeColor=none;fillColor=none;align=left;verticalAlign=top;spacingLeft=4;spacingRight=4;overflow=hidden;rotatable=0;points=[[0,0.5],[1,0.5]];portConstraint=eastwest;" parent="WrLgofK7c-P82EvVTg10-9" vertex="1"><mxGeometry y="138" width="160" height="26" as="geometry"/></mxCell><mxCell id="6b9qopNAVwUQcf8cEVCN-3" value="UI" style="html=1;" parent="sJr_ZFusfqTdJ27oF-4D-1" vertex="1"><mxGeometry x="370" y="280" width="110" height="50" as="geometry"/></mxCell><mxCell id="6b9qopNAVwUQcf8cEVCN-4" value="" style="endArrow=open;endFill=1;endSize=12;html=1;entryX=0;entryY=0.5;entryDx=0;entryDy=0;" parent="sJr_ZFusfqTdJ27oF-4D-1" source="WrLgofK7c-P82EvVTg10-9" target="6b9qopNAVwUQcf8cEVCN-3" edge="1"><mxGeometry width="160" relative="1" as="geometry"><mxPoint x="300" y="410" as="sourcePoint"/><mxPoint x="460" y="410" as="targetPoint"/></mxGeometry></mxCell><mxCell id="6b9qopNAVwUQcf8cEVCN-5" value="" style="endArrow=open;endFill=1;endSize=12;html=1;" parent="sJr_ZFusfqTdJ27oF-4D-1" source="6b9qopNAVwUQcf8cEVCN-3" target="dL_OR4h-DGKXpUA8Gyb1-4" edge="1"><mxGeometry width="160" relative="1" as="geometry"><mxPoint x="300" y="410" as="sourcePoint"/><mxPoint x="460" y="410" as="targetPoint"/></mxGeometry></mxCell><mxCell id="_KoMBeKu2d4M7XPo38Ia-7" style="edgeStyle=orthogonalEdgeStyle;rounded=0;orthogonalLoop=1;jettySize=auto;html=1;" parent="sJr_ZFusfqTdJ27oF-4D-1" source="qPbJwiR8bPhdUwhycfaW-0" target="WrLgofK7c-P82EvVTg10-9" edge="1"><mxGeometry relative="1" as="geometry"/></mxCell><mxCell id="qPbJwiR8bPhdUwhycfaW-0" value="Bãng xếp hạng" style="html=1;" parent="sJr_ZFusfqTdJ27oF-4D-1" vertex="1"><mxGeometry x="85" y="680" width="110" height="50" as="geometry"/></mxCell><mxCell id="_KoMBeKu2d4M7XPo38Ia-6" value="&lt;font style=&quot;font-size: 18px&quot;&gt;&lt;b&gt;Database&lt;/b&gt;&lt;/font&gt;" style="text;html=1;align=center;verticalAlign=middle;resizable=0;points=[];autosize=1;" parent="sJr_ZFusfqTdJ27oF-4D-1" vertex="1"><mxGeometry x="360" y="90" width="100" height="20" as="geometry"/></mxCell></root></mxGraphModel></diagram></mxfile>
=======
<mxfile host="Electron" modified="2021-11-27T05:00:37.452Z" agent="5.0 (Windows NT 10.0; Win64; x64) AppleWebKit/537.36 (KHTML, like Gecko) draw.io/13.9.9 Chrome/85.0.4183.121 Electron/10.1.5 Safari/537.36" etag="7HMdFjmMkZwGoFZTfXbd" version="13.9.9" type="device" pages="3"><diagram id="4GdEAXSaMSUqvFrL9FKr" name="Tổng Quan Game">7Vtbd5s4EP41PCYHEGD8iG/x7ian2abnNH0koIAaQASL2O6vXwkkro7Lpg7gpg9J0EiI0TejuUmRwDzcXSV27N9gFwaSKrs7CSwkVVUU2aR/GGWfU3RFzgleglw+qCTcoR+QE8WwFLlwUxtIMA4IiutEB0cRdEiNZicJ3taHPeKg/tXY9mCLcOfYQZv6FbnEz6mmLpf0NUSeT4oF857QFoM5YePbLt5WSGApgXmCMcmfwt0cBgw8gUv+3uqV3oKxBEakywubdQjutfWLDS9Qer92Pv1wzQvN4MyRvVgxdCkAvIkT4mMPR3awLKmzBKeRC9m0Mm2VY64xjilRocTvkJA9l6adEkxJPgkD3ttmna9mg9PEgUf4FSpgJx4kx9al5wPZYipf4MhcQRxCkuzpgAQGNkEvdWnbXGm8YlyJK33g0P4PmPm8L3aQ8i/dweQFJi3wS2gZTlsfEXgX2xkkW7rBOsJIZyZwd3TdvFcVirwv9Ddvb0tlV4QG+xVFN+R3gso8L4VUOyqkMSp91LQhUKbgJvt7/n7W+MYal7poLnbVzsWet95fOhoYlXjUlrmYB4gtvik06lNi9piGgeUQnFCw2N5H1H9d2w8wuMUbRBCO6JAHTAgOKwOsAHmsg+CGWcEpCVAE54VHPSqD7ramcI3c1gBVb9ka0KepUdtm+d9UWirSzJIsENGeQJoDabb4GJtF67hZlFPvFf7qLUZMxQvX1FCXIiQUU+SM8rcaqlCw8Qs2sqUclhui6Pfag4f8fa97UJl8jM1ldNxc6sk90eHdBUDDGPe8u9QzSzw6y29ciQcAf7ZXDQ91XOLR/4inhoc2KvEYrRBAmmvSVGa/TRB5tC/yRcC4iNuyDAIUb2A/mXwzupbbnt084Nn1d4uuQQu9L34WT2sZcuRALNUnYE0PWMQ9FcAmvQJ2bqUPvatPnIxqVws5/+5Gt7t8pqOSj+C7Wv7wMaIUHLGkaFRW45CZ7dVqgA+SQAkj8vMYYlylVsF3RZvXeNMu5fWpxFqj6l+k94Mp8bm5vumZKuO0pYx/44HjsKYygqHjMJEjVgPXapAvB+k+a88kczKuGBZMhsauXTW9hyEDiCM4WzEEi6RJYanAiADUtIEBFN8/pHw6q985xQEFbWTpqCKUUUmbpGmepA53ivF2Ews61wzGFb2CdtHgNk971UwWji9kc0AgPWq+Ph1ZIKtNz0xBu8YAmjkuBW3HAFfWzXJUyqiYQytjOwaQVCMgbOV0KYbHnq58lG9otrst0U+/Vw4RxLiGrfGcsltfs0cckYtNppr0dVnR413Z2ZyCDX77LDeMSUtOK67YWjlM6ezIxWG2Dkx/h8I66Wxt1GLNDWkmFyYLXVaWmXNU55KS49Et/p9q3dHNnqe8BhnCDbHD+CyX9VmIbiPkozAJ2vtCjkzINEKdN8cUQQSLX0uXZC6inoE4GljLT1W51XneZPfnLn/CVp2wie3o7az6hLA7pxYzLOrKTaihvvQw9gJ46TAprB4RnZb20B/lc7iMlYu1v/TX33d36mdj59nXPpo8ffrr6tnynumYFwS3FfZz5uoMPyTH4W9YbGpsSd0000kdRNEDC71sfclc44Uqv2LaMQX2MciuqvrIdWHU8rN0pcEcB+yuA/0ucByoPz6yD5AEP8FKDzDAFLgnyhNFXVCE6gcCloMnHKo4ZTu9l2gfcbQOiJ5eC76HPBs6kCb2ejakDVK0fHusp3UtpY8sGdHapfTCaYT2sAeWRapdXEVqXwfsNeYTEw9VSS+L59+qfae/52d2VOaTX/T7NV02W7q84NGCtWLBAypiBxblkiRPunmEbkiWgsal7++X49Bm+X8l+Y2t8r9zwPI/</diagram><diagram id="xvQNjVeXi9eKW-QLr-48" name="Cấu trúc">7Vtbd6o6EP41PHoWF7n4KF6Ou2rbvel1v5yVQgq4kdgIXvrrT9CgQNCybQW6li8tGZORfPNNZpKMnNSZrv7FYOaMkQU9TuStFSd1OVEUBF4j/yLJeiuRBX4rsLFr0U57geG+QyqMu4WuBeepjgFCXuDO0kIT+T40g5QMYIyW6W6vyEt/6wzYkBEYJvBY6aNrBc5Wqsn8Xj6Aru0EuwnTT6Yg7kwFcwdYaJkQST1O6mCEgu3TdNWBXgRejEv4isKJ9DTQft7jYb87EIW7QWOrrP83Q3ZTwNAPTlbdvjNaurF2FHWBLH14g3v2NR3CL4AXUrzoXIN1DCBGoW/BSAnPSfrScQNozIAZfboklCEyJ5h6pCWQR6oO4gCuMvh/8PLCDlFCRYimMMBrMi7WEhshZmHcXu5tqsSWcxL2bGpUCCiP7J3uPVbkgcKVD93AM9SH8DcyvdeB9mcyXLvTZWyVY9AVAqsYMjmgFgZLLAqWqH4BWLlzUBiwDIjJjBjIyoBHScMjaSw8gpADj3wudFQGnY7nRrOuAB25duhoDDpdriNxesu3iRgDa+r6D7fXVYAlqRlPU0sES523wt41fPZV49fS8NX/QOcxZ1Uacj2B09uc3id84v1NS+dagktaXRCAFzCHnKh45M30F+KQih09XXX1Th2cs3pEWedkcIG+1Y5SFdJCM+gTeIik73oxWKRFEyNBTIcAuHKDp8TzcxRm/5Fpq7uiUXfTWMcNn0zrKdlIjIqa+2GbVjzu70w2RyE24cdLegCwDY/po+4LrVSexhIgaeCYBBh6IHAX6VQuz8JU3S1yo1Vz557NNJmaYoYk20nSUcncKaNI5j9QtEWBUbQh3G6Op3OwVQYH+VM4KFTKQfXCwdI4KLCh5Rbh6AVpKie1yTN5S57hZgWRuNS0paMtnky1qY3D+xD34YsZjIYNQWV9lPDPoE0CnYNs5AOvt5fq6c3Wvs8IoRlFcAKDYE1dGYQByjjzp4JDxkFO89TcjWa89U94aj5qSr6ZC3thUZuNhr+GjZ444v88TBVgeDC4azWki8mOmsxZvV8Nu4qmvrf7D9fgcSI1R4d27uVYTLtY7AQnk0oy2erlR1MeaXZD7vn6L/sO2m+TBhsfLiZLmsye8GD8AyyQ+XYzsBx/aAx/l+Zkx14yuQO/uyGauu3or35vMBatx6FhJvXanXklcoJWTkognSslaFXB/HMzWCq46GglMTh/xas2Tpy0S6reZNUmY82LyY6arH7JWCXr2zeyWA2TMaFOJhNraLP6ZWMSk40duC2qRRImt2qWhLHXSSNkuz4R9RGefg8QW3LFIAosCccEjFqCtzsKjBmYczRYLnjsbfh1OH2BeH92W38QpfJANAwgLTXJfePHvXlzcTXqPeOGWGngSqQXz6lIdfa4lcuo+CogGbhyUePzjfzlgSv3yys5Xa0N9J/NGTZD2xiDdaLDLFox5gnNmUsjQZPTgUPMFIll+pPIcqw/edi+wak3S0chTJ4vRSdLdVwHs2dKWonB5PCGL4Vd2zQJUt8kjsgl4nd4RUwnMuvOthb13ndrimKWhS2lYhRZFo7Xxs8RBdJFfj1xFAvgmHtr/BVAHt5ZpoDUaf1WW9rUu6125Vyz6J3iD4XowzpCnHV4tcTEMfeQqkDJc6KWxvTAfO6aBKA5ifABKz5PqlG04upIpcbR6hY5B/FY9smCl2a2TkXIWLJowUtTTiuSlIyiryt4ySVKgQLvmhIlpyzqQpTzEUX8tkQpvKJcePIFPFFYWnyr/W/upGSWQodrCKq6mKqkFK8C5I9sr6uCXmYWxwO//KlFtprdWKnC2bJV0tz/dnC7xOx/gSn1/gc=</diagram><diagram id="QNJ7MTI33ArgHwdu0H43" name="Class">7Z1Zd9o4FMc/jc/pPDAHLxDnkS1pE5JmQrb2pUfYiq2JsIgtQuinH8kLmxSHtsKmU52TBV8LY+t3da37l2QMuzd5PY3BNLwgPsSG1fRfDbtvWJZpNl32j1sWmaVlNjNDECM/L7QyjNB3mBuLYjPkw2SjICUEUzTdNHokiqBHN2wgjsl8s9gjwZufOgUBFAwjD2DReo98GmZWt9Vc2T9CFIR0ecH5ngkoCueGJAQ+ma+Z7IFh92JCaPZq8tqDmFdeUS/JWfzt68kseXy+8c+sI3LScPqN7GAnP/KW5SXEMKI/fehv5+SiC89nlu9cHD1cEdv9BBqt7NAvAM/y+sqvlS6KCpyHiMLRFHh8e86cxLC7IZ1gtmWylzueW34NLzCm8HWNTH6up5BMII0XrEi+185rfbHkkm3PVxCP3NwWrgFsO7kR5I4TLA+9qhz2Iq8feV2R289n/YdP/TiyJ8Htvdnpw17DFeqq43lkxi57u8qSOZpgELGt7iOJ6Cjfw6sLYBRE7LXHqgvGzMBrBDF37eQ7KOEV7IUI+0OwIDN+WQkF3lOx1Q1JjL6zw4ICAdsd07zlWe2NEiP+TmZuMmsME1bmqiBlbpkuwOtGwSFIaG7wCMZgmqDx8jImIA5Q1CWUkkleaF+O0N5yhJboCGZb4ghW2/11R7iPhwF5PD/yGleuNXi5uwnMZsO0BU8Y0RhFAbOxaCe4A7tQmmKKyRPsEUwY935EMv9AGG+ZChfB8JG+6SAJa5DsE4dpmb6zslznNcBNhL33EacxK0S+DyMOl1BAQUaSY5sSFNG0hlpd9sMqstf8u2W02In32La52mY/vHhMeyRi1wJQyhkyN5lD7ioSDyhtR+97wKIguSvxPbX84xLeCYwvwQSylx8GE4DwXxq/Yvwtq2b8pvU2/ylIkjmJfc7/I0hCjV81/iO3bvzm2/hDcsPqVSNXi9xsOnUzb7/NPEAE3aAo1NhVY7d37trtC/vR29ijACxGGvsesLfq7t8VuWVZGoxRSi+jXCgJ5k8hnjBYGK6Y3nDkPDPa5m6L3G0JYwzGEF+RBFFE+PHjrOwW+9rwujv23xSka3K6EpGj5xjHTf7XtdPG/WT0bKPb5+IUf9VpIm4MiTEwjW7H6Nj6Jq/cL45rj/aioiM4Bov3uQv0p9oFVCf2Zu2RX5Lap8C7DDjg4SBMI4OTOgNFOgwo9wGn7vTeEu/+l7PJGMZXvPYE4FrcVSnumlvqrrvjTcFsO2+7Q/5x19CjIAowXH2edbz1eZKPM3dwPoAZ4AhQ2CWzyE8EH1xe6S+4pSg7pO7YvEsNOg6VxqFlo/59VGbLeQP4lCQPmrdq3rXLypaYlyx5f9G8VfOuXUe2RE0xg2Y1vZAkMMq3NHi14CtVk6WzLErGjzABaEQ0dOXQa9eSLZG6gFmLij/Nd1fReG+TQI4FmtAPYJEOsjoJSUAigAcrK6tkli1AP6/iVZkhSWlxWP9CShd5vgdmlBi/MNsqIbPYg2X1no93sBwzgLsA4pdYiieGGFD0sl5oH21LHKe5AKI+p1P1PabqTkH33QhbKDw/lqo726m6bOLXoeTqopI8RAyb1cbcUzbkpHaQBcYmTkvoG39p3Dna2U0PJo0XJeUsrUsNIx4jNHXV1GtP5m25WtezjE6zMA8iX5NXTb7KtF6a3ImTgdfBJ+QCLC6AHjdSDr7+tF6u167I385ukJ4duAfytef2ts7t98m3wtxejleM6V4MWQZxCee6OSvH3a57tq8jieTJJQQxXmjcynHXPu/L1rgrzMernOMlV2pdgepBK7X+8Nvnayds9E/PH6a3Hfd0MTaLvub7Qm0OqHqhtuy0N3Ra6olz6LVSq1CptZ18ZkGh1No732AV9KikflCyghL514RViQ68hROUNqSD1EGlZyzOblkijxnwbNGshq4UepUyqPSMxXGQTPue8Kh/gzRy5cir1D+l3SuxnadDsQy5XjChGnalmqf0lMU5bALkP1D4UkR3V11zX700cVbFw3IxDLPj5SK5p3xRVPeEB/fn2XKZnG7xyn2iwvjeHh8/k+ll525++4/36HqDu95lQ1wdc5oukTQjHuSz1ZIzI53DamTPQ9FOoNoJqlRIpU4ghv1rEPk8bWtG6eQW/oJT1ugVo69SLZWOcortX0Q/JtEs0exVp/BVSqdS9uKkFs2+IvZVLouVy+ZtAepBy+bSi8h1x3dl87yTVb1qLq/6o/9n1Zc1jQOpelGo7kMKEH+fHrmo+lmfTnvHzk/pavBfa4pi90c/61PqAaXN6SCHLeTAxSFLPVS1X+ZVjlpIs1uxm1sszJ1isICxXpi7D+y1j1xIHgxWLMDP/n+w2Z8G+7X4H1M/21W1C1Q6niH3AbHtC5T/wAENRXgrHNCQBnZLgMuOGxLdbVNPuu5lOL9Zyvx8NT6bo2t3fBX6t/Nw4T2C+0JqXU+Zy/BUnzKXnfVaI+umo0LZAxRfl0OFfFLA8mmKJt+5BayCbxVxN2fGtWWPG5OtKS7WHit3W9l4erZomKsJG/XTfp6RYkcjSV2yw7sl7vR1tXO1vjg7yrgw9HlIAQksdrCzHW8XZrbsUwuzPEqucXpX4lje8FKh4c2gxuMWb17ZZe33i2W2RAbZAEtTFrkUuMB40B+ehp9Ov8Qnkxd7PPTPh18k7WdIxmNxKrpWmlR6gbPpBUu870pNtoLOitQPSr5mQCtN6x5Q2ooOUmmSnrHYOdVC036RVyk0Sc9YXFeohab9Y69SaDr+erKYY++Tf7mwu8/fxqhn3kju8KuWnnQ8D07/9IkzAsxd/eAwpCXp+e3w3Yp/oLKkpknvUVlim6vv9MweELX6ZlR78B8=</diagram></mxfile>
>>>>>>> Stashed changes
